<svg xmlns="http://www.w3.org/2000/svg" viewBox="0 0 32 32">
  <rect width="32" height="32" rx="7" fill="#25D366"/>
  <path fill="#fff" d="M16 6.5a9.5 9.5 0 0 0-8.13 14.4L6.5 25.5l4.74-1.24A9.5 9.5 0 1 0 16 6.5Zm0 17.3a7.8 7.8 0 0 1-3.97-1.08l-.28-.17-2.81.74.75-2.74-.18-.29A7.8 7.8 0 1 1 16 23.8Zm4.3-5.84c-.24-.12-1.4-.69-1.62-.76-.22-.08-.38-.12-.53.12-.16.24-.61.76-.75.92-.14.16-.28.18-.51.06-.24-.12-1-.37-1.9-1.18-.7-.63-1.18-1.4-1.32-1.63-.14-.24-.01-.37.11-.49.11-.11.24-.28.36-.42.12-.14.16-.24.24-.4.08-.16.04-.3-.02-.42-.06-.12-.53-1.28-.73-1.76-.19-.46-.39-.4-.53-.4l-.46-.01a.88.88 0 0 0-.64.3c-.22.24-.84.82-.84 2 0 1.18.86 2.32.98 2.48.12.16 1.69 2.58 4.1 3.62.57.25 1.02.39 1.37.5.57.19 1.1.16 1.51.1.46-.07 1.4-.57 1.6-1.13.2-.55.2-1.03.14-1.13-.06-.1-.22-.16-.46-.28Z"/>
</svg>
